<?xml version="1.0" encoding="UTF-8"?>
<svg version="1.1" xmlns="http://www.w3.org/2000/svg" width="50" height="45">
<path d="M0 0 C16.5 0 33 0 50 0 C50 14.85 50 29.7 50 45 C33.5 45 17 45 0 45 C0 30.15 0 15.3 0 0 Z " fill="#FCF9FB" transform="translate(0,0)"/>
<path d="M0 0 C16.5 0 33 0 50 0 C50 14.85 50 29.7 50 45 C33.5 45 17 45 0 45 C0 30.15 0 15.3 0 0 Z M2 12 C1.938125 16.74375 1.87625 21.4875 1.8125 26.375 C1.78518799 27.8707959 1.75787598 29.3665918 1.72973633 30.90771484 C1.72224365 32.08027832 1.71475098 33.2528418 1.70703125 34.4609375 C1.6913208 35.66540527 1.67561035 36.86987305 1.65942383 38.11083984 C1.77181396 39.0642627 1.8842041 40.01768555 2 41 C5.94935514 43.63290343 9.35505752 43.28744926 13.9375 43.265625 C14.81398193 43.26753845 15.69046387 43.2694519 16.59350586 43.27142334 C18.44612922 43.27278399 20.29876216 43.26909594 22.15136719 43.26074219 C24.98914989 43.25004092 27.82629952 43.26064148 30.6640625 43.2734375 C32.46354307 43.27211588 34.26302324 43.26955345 36.0625 43.265625 C36.91255615 43.26967346 37.7626123 43.27372192 38.63842773 43.27789307 C43.61518544 43.24412934 43.61518544 43.24412934 48 41 C48.4181217 37.99147392 48.4181217 37.99147392 48.29296875 34.4609375 C48.28547607 33.28837402 48.2779834 32.11581055 48.27026367 30.90771484 C48.22929565 28.664021 48.22929565 28.664021 48.1875 26.375 C48.125625 21.63125 48.06375 16.8875 48 12 C32.82 12 17.64 12 2 12 Z " fill="#8F5CBF" transform="translate(0,0)"/>
<path d="M0 0 C10.23 0 20.46 0 31 0 C30.67 0.66 30.34 1.32 30 2 C29.0925 2.2475 28.185 2.495 27.25 2.75 C23.00160748 4.38399712 21.67476433 6.38120121 19 10 C19.66 10.33 20.32 10.66 21 11 C16 12 16 12 2 12 C2.33 21.57 2.66 31.14 3 41 C5.64 41.66 8.28 42.32 11 43 C10.67 43.66 10.34 44.32 10 45 C6.7 45 3.4 45 0 45 C0 30.15 0 15.3 0 0 Z " fill="#5262E8" transform="translate(0,0)"/>
<path d="M0 0 C4.89715131 0.27362307 8.23820649 2.03445952 12.375 4.5625 C13.43460938 5.20316406 14.49421875 5.84382813 15.5859375 6.50390625 C16.38257812 6.99761719 17.17921875 7.49132812 18 8 C17.890625 10.2265625 17.890625 10.2265625 17 13 C14.90479429 14.72233012 13.06008438 16.02534457 10.75 17.375 C10.17636719 17.74238281 9.60273438 18.10976563 9.01171875 18.48828125 C6.20886881 20.18020661 4.44217272 21.0326193 1.140625 20.7890625 C-1 20 -1 20 -2 19 C-2.12663091 16.17583618 -2.18520548 13.38705207 -2.1875 10.5625 C-2.19974609 9.77294922 -2.21199219 8.98339844 -2.22460938 8.16992188 C-2.22987279 6.11192565 -2.12206285 4.05437991 -2 2 C-1.34 1.34 -0.68 0.68 0 0 Z " fill="#CE679E" transform="translate(16,17)"/>
<path d="M0 0 C2.97 0 5.94 0 9 0 C9 14.85 9 29.7 9 45 C-4.2 45 -17.4 45 -31 45 C-30.67 44.34 -30.34 43.68 -30 43 C-28.9805127 42.97494385 -27.96102539 42.9498877 -26.91064453 42.92407227 C-23.13479646 42.83002996 -19.35913373 42.72980163 -15.58349609 42.62768555 C-13.94812347 42.58432462 -12.31270523 42.54265039 -10.67724609 42.50268555 C-8.32896159 42.44501088 -5.98090696 42.38130871 -3.6328125 42.31640625 C-2.89942657 42.29969376 -2.16604065 42.28298126 -1.41043091 42.26576233 C2.42202308 42.21362038 2.42202308 42.21362038 6 41 C6.33 31.43 6.66 21.86 7 12 C1.06 12 -4.88 12 -11 12 C-11 11.67 -11 11.34 -11 11 C-5.06 10.67 0.88 10.34 7 10 C7 8.02 7 6.04 7 4 C6.34 4 5.68 4 5 4 C5 3.34 5 2.68 5 2 C3.02 2 1.04 2 -1 2 C-0.67 1.34 -0.34 0.68 0 0 Z " fill="#EA4870" transform="translate(41,0)"/>
<path d="M0 0 C3.52892447 1.41156979 6.54862203 2.77384533 9.8125 4.625 C10.99779297 5.29402344 10.99779297 5.29402344 12.20703125 5.9765625 C12.79871094 6.31429688 13.39039063 6.65203125 14 7 C14 7.99 14 8.98 14 10 C12.2335343 11.0076952 10.46166177 12.00591714 8.6875 13 C7.20830078 13.8353125 7.20830078 13.8353125 5.69921875 14.6875 C3 16 3 16 0 16 C0 10.72 0 5.44 0 0 Z " fill="#FCFAFC" transform="translate(17,19)"/>
<path d="M0 0 C-0.97866338 1.14626322 -1.95794587 2.29199788 -2.9375 3.4375 C-3.48277344 4.07558594 -4.02804688 4.71367188 -4.58984375 5.37109375 C-5.36795695 6.26991149 -6.15936528 7.15936528 -7 8 C-9.67058851 8.14115161 -12.32432238 8.04247107 -15 8 C-11.69336055 0.28450794 -7.88453575 -0.60650275 0 0 Z " fill="#EAE4F4" transform="translate(34,2)"/>
<path d="M0 0 C-0.97866338 1.14626322 -1.95794587 2.29199788 -2.9375 3.4375 C-3.48277344 4.07558594 -4.02804688 4.71367188 -4.58984375 5.37109375 C-5.36795695 6.26991149 -6.15936528 7.15936528 -7 8 C-9.67058851 8.14115161 -12.32432238 8.04247107 -15 8 C-11.69336055 0.28450794 -7.88453575 -0.60650275 0 0 Z " fill="#E3E5F8" transform="translate(22,2)"/>
<path d="M0 0 C0 3.90838866 -1.50567876 5.11594107 -4 8 C-1.36 8 1.28 8 4 8 C4 8.33 4 8.66 4 9 C-2.435 9.495 -2.435 9.495 -9 10 C-9.29296875 3.9453125 -9.29296875 3.9453125 -9 2 C-5.5647952 -0.29013653 -4.014669 -0.17842973 0 0 Z " fill="#5366EE" transform="translate(11,2)"/>
<path d="M0 0 C4.57756359 0.31210661 8.00574046 1.81266739 12 4 C11.01 5.485 11.01 5.485 10 7 C8.2421875 5.95833333 6.484375 4.91666667 4.7265625 3.875 C3.02527333 2.84931652 3.02527333 2.84931652 1 3 C0.67 8.28 0.34 13.56 0 19 C-0.66 19 -1.32 19 -2 19 C-2.05380578 16.20807795 -2.09357669 13.4171859 -2.125 10.625 C-2.14175781 9.8309375 -2.15851562 9.036875 -2.17578125 8.21875 C-2.19335473 6.14507985 -2.10335168 4.07116759 -2 2 C-1.34 1.34 -0.68 0.68 0 0 Z " fill="#9C62BA" transform="translate(16,17)"/>
<path d="M0 0 C2.97 0 5.94 0 9 0 C9.02687279 1.81242052 9.04633715 3.62495233 9.0625 5.4375 C9.07410156 6.44683594 9.08570312 7.45617187 9.09765625 8.49609375 C9 11 9 11 8 12 C6.58429877 12.08651611 5.164405 12.10704904 3.74609375 12.09765625 C2.89208984 12.09443359 2.03808594 12.09121094 1.15820312 12.08789062 C0.26037109 12.07951172 -0.63746094 12.07113281 -1.5625 12.0625 C-2.46419922 12.05798828 -3.36589844 12.05347656 -4.29492188 12.04882812 C-6.53001314 12.03700225 -8.76497437 12.0205222 -11 12 C-11 11.67 -11 11.34 -11 11 C-5.06 10.67 0.88 10.34 7 10 C7 8.02 7 6.04 7 4 C6.34 4 5.68 4 5 4 C5 3.34 5 2.68 5 2 C3.02 2 1.04 2 -1 2 C-0.67 1.34 -0.34 0.68 0 0 Z " fill="#C158A0" transform="translate(41,0)"/>
<path d="M0 0 C1.794375 0.2165625 1.794375 0.2165625 3.625 0.4375 C2.32967692 3.32706687 1.1119789 5.44791688 -1.375 7.4375 C-3.63671875 7.73046875 -3.63671875 7.73046875 -6.0625 7.625 C-6.87074219 7.59792969 -7.67898437 7.57085938 -8.51171875 7.54296875 C-9.12660156 7.50816406 -9.74148437 7.47335938 -10.375 7.4375 C-5.32143307 -0.06628119 -5.32143307 -0.06628119 0 0 Z " fill="#F4EDF5" transform="translate(41.375,1.5625)"/>
<path d="M0 0 C0.33 0 0.66 0 1 0 C1.33 5.28 1.66 10.56 2 16 C4.64 16.66 7.28 17.32 10 18 C9.67 18.66 9.34 19.32 9 20 C5.7 20 2.4 20 -1 20 C-1.02683697 16.85411056 -1.04675902 13.70844729 -1.0625 10.5625 C-1.07087891 9.66466797 -1.07925781 8.76683594 -1.08789062 7.84179688 C-1.09111328 6.98779297 -1.09433594 6.13378906 -1.09765625 5.25390625 C-1.10551147 4.06776733 -1.10551147 4.06776733 -1.11352539 2.85766602 C-1 1 -1 1 0 0 Z " fill="#9455B5" transform="translate(1,25)"/>
<path d="M0 0 C0.33 0.66 0.66 1.32 1 2 C1.66 2 2.32 2 3 2 C3 3.98 3 5.96 3 8 C-2.93609666 8.89316269 -8.06975197 8.97040422 -14 8 C-14 7.67 -14 7.34 -14 7 C-13.40832031 6.99742188 -12.81664062 6.99484375 -12.20703125 6.9921875 C-7.39738803 6.82946609 -7.39738803 6.82946609 -3.2890625 4.59765625 C-1.76367086 2.78052041 -1.76367086 2.78052041 0 0 Z " fill="#CA8DC0" transform="translate(45,2)"/>
<path d="M0 0 C0.33 0 0.66 0 1 0 C1 4.95 1 9.9 1 15 C2.32 14.34 3.64 13.68 5 13 C7.75 12.875 7.75 12.875 10 13 C8.06745228 15.0245738 6.36841312 16.42105792 4 18 C2.35 17.67 0.7 17.34 -1 17 C-0.67 11.39 -0.34 5.78 0 0 Z " fill="#C97DB4" transform="translate(16,20)"/>
<path d="M0 0 C-0.95117134 1.1725131 -1.91117009 2.33787015 -2.875 3.5 C-3.40867187 4.1496875 -3.94234375 4.799375 -4.4921875 5.46875 C-4.98976563 5.9740625 -5.48734375 6.479375 -6 7 C-6.66 7 -7.32 7 -8 7 C-8.1875 4.625 -8.1875 4.625 -8 2 C-4.77208445 -0.1519437 -3.71599191 -0.20086443 0 0 Z " fill="#E0E5FA" transform="translate(10,2)"/>
<path d="M0 0 C1.51400391 0.01740234 1.51400391 0.01740234 3.05859375 0.03515625 C4.07050781 0.04417969 5.08242188 0.05320313 6.125 0.0625 C7.29869141 0.07990234 7.29869141 0.07990234 8.49609375 0.09765625 C7.49609375 2.09765625 7.49609375 2.09765625 5.6484375 2.73046875 C4.91753906 2.89289063 4.18664062 3.0553125 3.43359375 3.22265625 C2.33337891 3.47402344 2.33337891 3.47402344 1.2109375 3.73046875 C0.64503906 3.85164062 0.07914063 3.9728125 -0.50390625 4.09765625 C-0.50390625 3.43765625 -0.50390625 2.77765625 -0.50390625 2.09765625 C-1.49390625 1.76765625 -2.48390625 1.43765625 -3.50390625 1.09765625 C-2.50390625 0.09765625 -2.50390625 0.09765625 0 0 Z " fill="#675AD7" transform="translate(22.50390625,-0.09765625)"/>
<path d="M0 0 C2.97 0 5.94 0 9 0 C8.34 1.32 7.68 2.64 7 4 C6.34 4 5.68 4 5 4 C5 3.34 5 2.68 5 2 C3.02 2 1.04 2 -1 2 C-0.67 1.34 -0.34 0.68 0 0 Z " fill="#9D509F" transform="translate(41,0)"/>
<path d="M0 0 C1.98 0.66 3.96 1.32 6 2 C5.01 3.485 5.01 3.485 4 5 C2.02 4.01 0.04 3.02 -2 2 C-1.34 1.34 -0.68 0.68 0 0 Z " fill="#B06DB7" transform="translate(22,19)"/>
</svg>
